<?xml version="1.0" encoding="UTF-8"?>
<svg id="Layer_1" xmlns="http://www.w3.org/2000/svg" version="1.1" viewBox="0 0 790 295">
  <!-- Generator: Adobe Illustrator 30.0.0, SVG Export Plug-In . SVG Version: 2.1.1 Build 123)  -->
  <g>
    <g>
      <path d="M84.88,203.64c-.74,0-1.49-.01-2.23-.04h-.02c-5.1,0-10.06-.81-14.63-2.41-4.73-1.65-8.62-4.38-11.57-8.1-3.13-3.62-4.95-7.84-5.35-12.5-.39-4.61.6-9.12,2.97-13.41,2.69-4.39,6.33-7.74,10.88-10.03,4.4-2.22,9.34-3.72,14.66-4.47,3.05-.42,6.19-.64,9.33-.64,2.24,0,4.53.11,6.81.32,5.42.52,10.47,1.4,15.02,2.64,2.99.81,5.96,1.74,8.84,2.76,2.91,1.04,5.75,2.17,8.47,3.38l7,3.23.45-.49,2.14-2.91c3.18-4,6.04-8.12,8.54-12.3,2.52-4.21,5.05-8.58,7.51-13,5.09-9.49,9.89-19.29,14.27-29.11,3.94-8.85,8.11-17.72,12.41-26.42-6.79.65-15.4,1.07-22.58,1.43-2.95.15-5.7.28-8.06.42-5.16.3-10.07.62-14.65.93-9.88.65-18.42,1.21-24.56,1.21-6.5,0-11.1-.54-12.44-3.18-1.21-2.38,1.18-4.75,3.12-6.33l17.71-14.62c1.73-1.59,12.73-9.46,14.71-10,3.68-1,6.13,0,1.23,7-1.36,1.94-2.45,4-7.35,10-1.58,1.94-4.62,5.39-6.13,7,14.51-.84,31.44-2.46,42.68-3.23,3.13-.21,5.5-.38,6.76-.46l9.85-.89,4.86-.61s.31,0,.37,0c.13-.05.26-.09.4-.12l.49-.8c2.22-4.41,4.83-8.98,7.78-13.6,4.17-7.21,9.45-14.34,15.65-21.12,6.39-6.99,14.82-12.02,25.05-14.94,4.22-1.08,8.55-1.61,12.94-1.61,4.7,0,9.05,1.25,12.91,3.73,3.73,2.58,5.87,5.78,6.44,9.58.53,3.58.12,7.06-1.21,10.32-1.81,4.43-4.5,8.39-7.99,11.76-3.41,3.3-7.39,6.34-11.81,9.01-4.4,2.67-9.18,5.01-14.2,6.95-4.95,1.92-9.84,3.61-14.54,5.02-6.2,1.82-12.34,3.35-18.27,4.56l-3.86.68s-2.56,4.87-3.11,5.95c-.59,1.16-1.13,2.32-1.59,3.46l-14.01,30.08c-4.65,9.39-9.49,18.69-14.39,27.7-4.6,8.44-10.13,16.73-16.45,24.66,3.69,1.84,7.38,3.68,11.07,5.52,4.33,2.16,8.89,4.37,13.55,6.58,4.93,2.11,10.26,3.98,15.75,5.54,5.34,1.52,10.88,2.29,16.48,2.29,9.35-.18,17.98-3.04,25.59-8.5l.11-.08c4.25-2.7,8.27-5.83,11.96-9.33,3.86-3.66,7.62-7.29,11.19-10.78l9.22-8.73c1.44-1.34,3.05-2.02,4.81-2.02,1.4,0,2.78.44,4.11,1.32,2.9,1.93,3.52,4.43,1.7,6.88-.64,1.02-1.45,1.86-2.41,2.51-.55.38-1.01.79-1.36,1.22l-.08.09-13.78,13.36c-2.43,2.12-10.11,8.85-10.11,8.85-3.43,3-7.35,5.68-11.68,7.97-8.62,4.97-18.11,7.61-28.11,7.82-.82.03-1.67.04-2.52.04-5.45,0-10.79-.59-15.86-1.77-5.74-1.32-11.39-3.08-16.77-5.23-5.34-2.12-10.62-4.59-15.71-7.33-4.94-2.65-9.9-5.2-14.72-7.57-.05-.02-.09-.04-.13-.06l-.45.46-2.62,2.75-5.96,5.17c-4.07,3.32-8.4,6.23-12.93,8.69-5.17,2.53-10.6,4.51-16.26,5.95-5.03,1.28-10.19,1.93-15.33,1.93ZM89.58,162.32c-2.14,0-4.3.15-6.41.45-4.06.55-7.87,1.81-11.36,3.73-3.37,1.86-5.65,4.32-6.95,7.53-1.3,3.53-1.14,6.93.51,10.33,1.6,3.31,4.35,5.6,8.41,6.99,3.12,1.14,6.35,1.71,9.67,1.71h0c1.49,0,3.03-.11,4.57-.34,5.31-.77,10.26-1.94,14.73-3.47,5.38-1.72,10.19-4.21,14.34-7.41,3.61-2.78,7.01-5.73,10.12-8.8-3.98-1.88-7.9-3.57-11.69-5.04-5-1.94-10.41-3.51-16.09-4.67-3.32-.68-6.63-1.02-9.86-1.02ZM216.03,44.64c-3.11,3.91-5.96,7.96-8.47,12.06-1.8,2.93-3.57,5.93-5.3,8.94,3.88-.91,7.72-1.92,11.47-3.02,5.37-1.56,10.5-3.43,15.27-5.57,4.07-1.76,8.04-3.82,11.84-6.15,3.69-2.26,6.84-4.93,9.38-7.93,1.55-2,2.95-4.43,4.11-7.17.97-2.29.7-4.32-.83-6.19-.92-1.2-2-1.89-3.34-2.17-1.1-.22-2.28-.34-3.49-.34-.61,0-1.25.03-1.89.09-1.97.18-3.91.59-5.77,1.21-2.08.7-3.77,1.32-5.17,1.89-3.63,1.48-6.84,3.5-9.56,5.99-2.87,2.64-5.66,5.45-8.27,8.36Z"/>
      <path d="M125.04,56c7.52-6.13,8.58-2,6.13,1-5.15,6.31-19.29,19.12-17.16,19,18.38-1,50.86-3.3,56.99-3.7l9.93-.9,4.78-.6c.49,0,.86-.05,1.1-.15.24-.1.61-.15,1.1-.15l1.1-1.8c2.21-4.4,4.78-8.9,7.72-13.5,4.16-7.2,9.31-14.15,15.44-20.85,6.12-6.7,14.09-11.45,23.9-14.25,3.92-1,7.96-1.5,12.13-1.5s7.96,1.1,11.4,3.3c3.18,2.2,5.02,4.95,5.51,8.25.49,3.3.12,6.45-1.1,9.45-1.72,4.2-4.23,7.9-7.54,11.1-3.31,3.2-7.11,6.1-11.4,8.7-4.29,2.6-8.89,4.85-13.79,6.75-4.91,1.9-9.69,3.55-14.34,4.95-6.13,1.8-12.13,3.3-18.02,4.5l-5.15.9-1.47,3.6c-.74,1-1.41,2.1-2.02,3.3-.61,1.2-1.17,2.4-1.65,3.6l-13.97,30c-4.66,9.4-9.44,18.6-14.34,27.6-4.91,9-10.79,17.7-17.65,26.1,4.41,2.2,8.82,4.4,13.24,6.6,4.41,2.2,8.94,4.4,13.6,6.6,5.15,2.2,10.54,4.1,16.18,5.7,5.64,1.6,11.4,2.4,17.28,2.4,10.05-.2,19.12-3.2,27.21-9,4.41-2.8,8.51-6,12.32-9.6,3.8-3.6,7.54-7.2,11.21-10.8l9.19-8.7c1.71-1.6,3.55-1.75,5.51-.45,1.96,1.3,2.33,2.75,1.1,4.35-.49.8-1.1,1.45-1.84,1.95-.74.5-1.35,1.05-1.84,1.65l-13.6,13.2c-3.43,3-6.8,5.95-10.11,8.85-3.31,2.9-7.05,5.45-11.21,7.65-8.34,4.8-17.28,7.3-26.84,7.5-6.13.2-12.01-.35-17.65-1.65-5.64-1.3-11.09-3-16.36-5.1-5.27-2.1-10.42-4.5-15.44-7.2-5.03-2.7-9.99-5.25-14.89-7.65-.49-.2-.86-.45-1.1-.75-.25-.3-.61-.25-1.1.15l-1.47,1.5-2.57,2.7-5.88,5.1c-3.92,3.2-8.09,6-12.5,8.4-4.91,2.4-10.11,4.3-15.63,5.7-5.51,1.4-11.09,2-16.73,1.8-4.91,0-9.5-.75-13.79-2.25-4.29-1.5-7.78-3.95-10.48-7.35-2.94-3.4-4.6-7.25-4.96-11.55-.37-4.3.55-8.45,2.76-12.45,2.45-4,5.76-7.05,9.93-9.15,4.16-2.1,8.76-3.5,13.79-4.2,5.02-.7,10.17-.8,15.44-.3,5.27.5,10.11,1.35,14.52,2.55,2.94.8,5.82,1.7,8.64,2.7,2.81,1,5.57,2.1,8.27,3.3l8.46,3.9c.49.2.86,0,1.1-.6l1.1-1.2,2.21-3c3.18-4,6.07-8.15,8.64-12.45,2.57-4.3,5.08-8.65,7.54-13.05,5.15-9.6,9.93-19.35,14.34-29.25s9.07-19.75,13.97-29.55c-9.32,1.2-25.14,1.74-34.68,2.3-34.31,2-57.6,5-46.57-4M103.71,191.1c5.64-1.8,10.66-4.4,15.07-7.8,4.41-3.4,8.46-7,12.13-10.8-4.91-2.4-9.68-4.5-14.34-6.3-5.15-2-10.66-3.6-16.54-4.8-5.88-1.2-11.64-1.4-17.28-.6-4.41.6-8.52,1.95-12.32,4.05-3.8,2.1-6.43,4.95-7.9,8.55-1.47,4-1.29,7.9.55,11.7,1.84,3.8,5.08,6.5,9.74,8.1,4.9,1.8,10.11,2.3,15.63,1.5,5.51-.8,10.6-2,15.26-3.6ZM232.76,28.5c-3.92,1.6-7.35,3.75-10.29,6.45-2.94,2.7-5.76,5.55-8.46,8.55-3.19,4-6.07,8.1-8.64,12.3-2.57,4.2-5.09,8.5-7.54,12.9,5.64-1.2,11.21-2.6,16.73-4.2,5.51-1.6,10.72-3.5,15.63-5.7,4.16-1.8,8.21-3.9,12.13-6.3,3.92-2.4,7.23-5.2,9.93-8.4,1.71-2.2,3.18-4.75,4.41-7.65,1.22-2.9.86-5.55-1.1-7.95-1.23-1.6-2.82-2.6-4.78-3-1.96-.4-4.04-.5-6.25-.3-2.21.2-4.35.65-6.43,1.35-2.09.7-3.86,1.35-5.33,1.95Z"/>
      <path d="M281.1,199.03c-1.61,0-3.26-.08-4.89-.24-4.3-.44-8.19-1.61-11.56-3.48-3.42-1.89-6.11-4.54-8.01-7.86-2.12-3.67-3.07-7.68-2.8-11.9.25-3.98.88-7.88,1.89-11.58,2.26-7.78,5.93-15.33,10.93-22.46,5.01-7.15,11.23-13.48,18.51-18.8,3.03-2.26,6.35-4.35,9.87-6.19,3.68-1.93,7.68-3.24,11.9-3.88,1.63-.23,3.26-.35,4.88-.35,2.96,0,5.98.39,8.99,1.16,5.07,1.3,8.51,4.1,10.23,8.33,1.14,3.27,1.13,6.29,0,9.06-1.05,2.57-2.58,5.06-4.53,7.4-1.94,2.33-4.32,4.48-7.05,6.39-2.63,1.84-5.23,3.49-7.73,4.92-4.34,2.29-8.8,4.22-13.33,5.76-4.44,1.51-9.09,2.89-13.81,4.11-1.44.39-2.99.76-4.56,1.08-1.38.28-2.81.62-4.23,1.01l-.18.04-4.7.96s-.42,0-.48,0c-.07.02-.14.05-.21.07-.12.24-.27.44-.44.62-1.72,4.72-2.59,9.32-2.61,13.69.23,1.49.58,3.1,1.04,4.79.39,1.44,1.14,2.69,2.28,3.81,2.45,1.63,4.9,2.43,7.46,2.43h.18l.17.02c.93.11,1.88.17,2.82.17,2.1,0,4.25-.28,6.38-.84,3.28-.86,6.49-1.88,9.54-3.02,4.02-1.93,7.97-4.13,11.76-6.55,3.88-2.47,7.66-5.11,11.23-7.84,2.17-1.57,4.27-3.29,6.28-5.12,2.08-1.9,4.1-3.75,6.06-5.55l6.55-6.54c1.76-1.85,3.71-2.25,5.02-2.25,1.42,0,2.86.45,4.26,1.34,2.7,1.89,3.3,4.23,1.73,6.47-1.04,1.48-2.1,2.78-3.16,3.86l-8.95,8.23-7.96,6.49c-2.61,2.13-5.41,4.32-8.35,6.51-6.05,4.12-12.92,7.93-20.5,11.37-6.39,2.91-13.1,4.38-19.94,4.38ZM312.63,123c-.73,0-1.48.06-2.23.17l-.15.02c-3.74.36-7.25,1.5-10.43,3.38-3.41,2.01-6.44,4.19-9.01,6.48-5.33,4.83-10.07,10.49-14.12,16.84,5.78-1.39,11.62-3.08,17.44-5.04,7.36-2.48,13.7-5.95,18.83-10.33,3.08-2.52,4.96-5.08,5.6-7.65.43-2.57-.88-2.98-1.58-3.19-1.43-.44-2.9-.67-4.36-.67Z"/>
      <path d="M346.73,153.3c1.71,1.2,2.08,2.5,1.1,3.9-.98,1.4-1.97,2.6-2.94,3.6l-8.82,8.1c-2.7,2.2-5.33,4.35-7.9,6.45-2.57,2.1-5.33,4.25-8.27,6.45-5.88,4-12.56,7.7-20.04,11.1-7.48,3.4-15.26,4.7-23.35,3.9-3.92-.4-7.42-1.45-10.48-3.15-3.07-1.7-5.46-4.05-7.17-7.05-1.96-3.4-2.82-7.05-2.57-10.95.24-3.9.86-7.65,1.84-11.25,2.21-7.6,5.76-14.9,10.66-21.9,4.9-7,10.9-13.1,18.01-18.3,2.94-2.2,6.12-4.2,9.56-6,3.43-1.8,7.11-3,11.03-3.6,4.16-.6,8.39-.35,12.68.75,4.29,1.1,7.17,3.45,8.64,7.05.98,2.8.98,5.4,0,7.8-.98,2.4-2.39,4.7-4.23,6.9-1.84,2.2-4.04,4.2-6.62,6-2.57,1.8-5.09,3.4-7.54,4.8-4.17,2.2-8.46,4.05-12.87,5.55s-8.95,2.85-13.6,4.05c-1.47.4-2.94.75-4.41,1.05-1.47.3-2.94.65-4.41,1.05l-4.41.9c-.49,0-.86.05-1.1.15-.25.1-.61.15-1.1.15-.25,0-.37.2-.37.6s-.13.6-.37.6c-1.96,5.2-2.94,10.2-2.94,15,.24,1.6.61,3.3,1.1,5.1.49,1.8,1.47,3.4,2.94,4.8,2.94,2,6,3,9.19,3,3.43.4,6.86.15,10.29-.75,3.43-.9,6.74-1.95,9.93-3.15,4.16-2,8.21-4.25,12.13-6.75,3.92-2.5,7.72-5.15,11.4-7.95,2.21-1.6,4.35-3.35,6.43-5.25,2.08-1.9,4.1-3.75,6.07-5.55l6.62-6.6c1.71-1.8,3.68-2,5.88-.6ZM309.96,121.2c-4.17.4-8.03,1.65-11.58,3.75-3.56,2.1-6.68,4.35-9.38,6.75-6.62,6-12.26,13.1-16.91,21.3,7.59-1.6,15.26-3.7,22.98-6.3,7.72-2.6,14.28-6.2,19.67-10.8,3.43-2.8,5.51-5.7,6.25-8.7.49-2.8-.55-4.6-3.12-5.4-2.57-.8-5.21-1-7.9-.6Z"/>
      <path d="M316.21,283.7c-5.17,0-9.75-1.19-13.6-3.55-3.85-2.36-6.5-5.59-7.88-9.61l-.04-.12c-.8-3.03-.86-6.16-.2-9.31.63-2.96,1.31-5.86,2.04-8.63,2.23-7.68,5.17-15.34,8.75-22.81,3.62-7.53,7.27-15.01,10.86-22.22l24.88-46.62c-1.23-.5-2.19-1.36-2.81-2.54-1.1-2.08-.7-4.2,1.11-5.97l3.74-3.36,4.23-3.45c.62-.92,1.43-1.73,2.43-2.42.55-.39.99-.92,1.34-1.62l.04-.08.04-.07c1.44-2.34,3.03-5.14,4.73-8.31l5.5-10.77c4.84-10.08,9.92-20.24,15.08-30.16,5.1-9.81,10.29-19.95,15.43-30.13,1.97-3.82,3.93-7.57,5.9-11.28,1.96-3.69,3.91-7.44,5.87-11.23,2.08-3.61,4.67-6.89,7.75-9.82,3.24-3.08,7.45-5.2,12.53-6.31,2.13-.61,4.32-.92,6.5-.92,1.77,0,3.57.2,5.35.6,4.03.91,7.48,2.74,10.24,5.45,3.3,3.14,4.98,6.91,4.98,11.18,0,3.97-.65,7.79-1.94,11.36-2.54,6.01-5.9,11.75-10.01,17.14-4.06,5.32-8.36,10.56-12.77,15.56-5.35,6.15-11,12.33-16.79,18.36-5.82,6.07-11.71,12.13-17.48,18.02l-16.97,15.96-7.73,7.21-3.33,3.02c-1.22,1.16-2.05,2.25-2.44,3.19l-.04.09-.05.08c-3.43,6.4-6.8,12.7-10.11,18.9-2.38,4.46-4.8,8.98-7.24,13.55,1.25-.1,2.49-.15,3.71-.15h4.41c1.36,0,2.85-.09,4.43-.28,5.41-.58,24.47-2.93,30.09-5.04,6.78-2.67,13.05-6.33,18.59-10.85,5.65-4.61,7.29-5.35,12.13-10.08,1.14-1.21,2.73-1.94,4.61-2.09.23-.02.44-.03.65-.03,1.71,0,3.31.57,4.64,1.65l.13.1.11.12c2.14,2.33,2,5.01-.39,7.52-2.01,2.04-.4.04-2.5,1.96-2.09,1.91-4.28,3.8-6.53,5.63-3.48,2.84-7.27,5.57-11.25,8.11-4.02,2.57-8.37,4.81-12.91,6.66-8,3.67-29.83,6.67-38.2,6.91-1.3.2-2.5.31-3.59.31h-3.31c-.53,0-1.01-.01-1.46-.03-.28,1.2-.34,2.47-.15,3.81.24,1.79.49,3.48.73,5.07.76,4.73,1.56,9.46,2.38,14.06.86,4.85,1.49,9.75,1.86,14.56.37,4.86.37,9.74,0,14.5-.38,4.82-1.46,9.66-3.23,14.4-2.3,6.05-6.18,11.65-11.53,16.64-5.59,5.21-12.74,7.96-21.25,8.18h-.04s-.04,0-.04,0ZM334.55,199.39c-1.52,2.85-3.02,5.7-4.5,8.54-3.01,5.79-5.9,11.76-8.6,17.76-2.19,4.56-4.35,9.19-6.44,13.8-2.06,4.55-3.82,9.13-5.26,13.61-.47,1.35-.82,2.67-1.05,3.98-.24,1.38-.48,2.87-.73,4.46l-.02.12-.04.12c-.44,1.44-.66,2.84-.66,4.17,0,1.17.41,2.44,1.21,3.76,1.1,1.79,2.71,2.73,5.07,2.96.64.06,1.27.09,1.88.09,2,0,3.9-.33,5.65-.98,3.38-1.11,6.21-2.78,8.51-5.02,2.39-2.32,4.29-4.96,5.66-7.83,1.4-2.95,2.4-6.03,2.99-9.18.59-3.21.89-6.29.89-9.15.24-4.57.06-9.11-.54-13.58-.62-4.62-1.29-9.23-2.01-13.71-.5-2.23-.88-4.45-1.12-6.57-.24-2.07-.49-4.2-.73-6.38-.07-.32-.13-.65-.19-.97ZM430.12,32.94c-1.6,0-3.15.46-4.76,1.39-3.17,1.85-5.69,3.9-7.47,6.08-1.12,1.46-2.17,3.13-3.09,4.92-.99,1.92-1.98,3.77-2.96,5.59l-5.87,11.37c-2.43,4.56-4.77,9.18-6.96,13.75-2.17,4.52-4.53,9.19-7.02,13.87l-13.08,25.86c3.46-3.38,6.87-6.75,10.22-10.08,6.68-6.64,13.28-13.53,19.6-20.47,2.86-3.11,5.75-6.37,8.6-9.7,2.8-3.29,5.56-6.63,8.19-9.95,1.94-2.77,3.83-5.5,5.65-8.18,1.78-2.61,3.4-5.41,4.83-8.32.69-1.31,1.26-2.77,1.73-4.37.43-1.5.6-3.08.49-4.68-.11-1.52-.52-2.87-1.22-4.02-.6-.98-1.72-1.75-3.4-2.37-1.22-.46-2.38-.69-3.48-.69Z"/>
      <path d="M419.4,156.9c.73-.8,1.71-1.25,2.94-1.35,1.22-.1,2.33.25,3.31,1.05,1.47,1.6,1.34,3.3-.37,5.1-1.96,2-.31-.05-2.39,1.85-2.08,1.9-4.23,3.75-6.43,5.55-3.43,2.8-7.11,5.45-11.03,7.95-3.92,2.5-8.09,4.65-12.5,6.45-7.85,3.6-29.29,6.5-37.38,6.7-1.23.2-2.33.3-3.31.3h-3.31c-1.47,0-2.57-.1-3.31-.3-.25.2-.37.6-.37,1.2-.49,1.6-.62,3.3-.37,5.1.24,1.8.49,3.5.74,5.1.74,4.6,1.53,9.3,2.39,14.1.86,4.8,1.47,9.6,1.84,14.4.37,4.8.37,9.55,0,14.25-.37,4.7-1.41,9.35-3.13,13.95-2.21,5.8-5.88,11.1-11.03,15.9-5.15,4.8-11.64,7.3-19.49,7.5-4.65,0-8.7-1.05-12.13-3.15-3.43-2.1-5.76-4.95-6.99-8.55-.74-2.8-.79-5.65-.18-8.55.61-2.9,1.29-5.75,2.02-8.55,2.21-7.6,5.09-15.1,8.64-22.5,3.56-7.4,7.17-14.8,10.85-22.2l26.1-48.9c-1.96.2-3.31-.4-4.04-1.8-.73-1.4-.49-2.7.74-3.9l3.68-3.3,4.41-3.6c.49-.8,1.16-1.5,2.02-2.1.86-.6,1.53-1.4,2.02-2.4,1.47-2.4,3.06-5.2,4.78-8.4l5.51-10.8c4.9-10.2,9.93-20.25,15.07-30.15s10.29-19.95,15.44-30.15c1.96-3.8,3.92-7.55,5.88-11.25,1.96-3.7,3.92-7.45,5.88-11.25,1.96-3.4,4.41-6.5,7.35-9.3,2.94-2.8,6.74-4.7,11.4-5.7,3.43-1,6.92-1.1,10.48-.3,3.55.8,6.55,2.4,9.01,4.8,2.94,2.8,4.41,6.1,4.41,9.9s-.61,7.4-1.84,10.8c-2.45,5.8-5.7,11.35-9.74,16.65-4.04,5.3-8.27,10.45-12.68,15.45-5.39,6.2-10.97,12.3-16.73,18.3-5.76,6-11.58,12-17.46,18l-16.91,15.9-7.72,7.2-3.31,3c-1.47,1.4-2.45,2.7-2.94,3.9-3.44,6.4-6.8,12.7-10.11,18.9-3.31,6.2-6.68,12.5-10.11,18.9.74-1.4,1.96-2.2,3.68-2.4,1.71-.2,3.43-.3,5.15-.3h4.41c1.47,0,3.06-.1,4.78-.3,5.64-.6,24.88-3,30.76-5.2,7.11-2.8,13.54-6.55,19.3-11.25,5.76-4.7,7.41-5.45,12.32-10.25ZM341.58,240.6c.24-4.6.06-9.2-.55-13.8-.61-4.6-1.29-9.2-2.02-13.8-.49-2.2-.86-4.35-1.1-6.45-.25-2.1-.49-4.25-.74-6.45-.74-3.4-.74-6.9,0-10.5-3.19,5.8-6.31,11.65-9.38,17.55-3.07,5.9-5.95,11.85-8.64,17.85-2.21,4.6-4.35,9.2-6.43,13.8-2.08,4.6-3.86,9.2-5.33,13.8-.49,1.4-.86,2.8-1.1,4.2-.24,1.4-.49,2.9-.74,4.5-.49,1.6-.73,3.15-.73,4.65s.49,3.05,1.47,4.65c1.47,2.4,3.8,3.75,6.99,4.05,3.19.3,6.13-.05,8.82-1.05,3.68-1.2,6.8-3.05,9.38-5.55,2.57-2.5,4.6-5.3,6.07-8.4,1.47-3.1,2.51-6.3,3.13-9.6.61-3.3.92-6.45.92-9.45ZM370.63,126.9c6.86-6.6,13.66-13.25,20.4-19.95,6.74-6.7,13.29-13.55,19.67-20.55,2.94-3.2,5.82-6.45,8.64-9.75,2.81-3.3,5.57-6.65,8.27-10.05,1.96-2.8,3.86-5.55,5.7-8.25,1.84-2.7,3.49-5.55,4.96-8.55.74-1.4,1.34-2.95,1.84-4.65.49-1.7.67-3.45.55-5.25-.13-1.8-.61-3.4-1.47-4.8-.86-1.4-2.39-2.5-4.6-3.3-3.68-1.4-7.23-1.1-10.66.9-3.44,2-6.13,4.2-8.09,6.6-1.23,1.6-2.33,3.35-3.31,5.25-.98,1.9-1.96,3.75-2.94,5.55l-5.88,11.4c-2.45,4.6-4.78,9.2-6.99,13.8-2.21,4.6-4.54,9.2-6.99,13.8l-19.12,37.8Z"/>
      <path d="M442.16,198.1c-2.36,0-4.77-.3-7.17-.88-4.16-.9-7.47-2.73-9.76-5.42-2.17-2.54-3.55-5.4-4.09-8.51-.52-3.13-.64-6.29-.39-9.42.25-3.05.76-6.08,1.52-8.99,1.22-4.59,2.59-9.16,4.08-13.61.08-.25.17-.5.25-.75-1.89,2.17,5.94,7.31,3.92,9.41-1.04,1.06-2.27,2.17-3.69,3.33-1.39,1.14-12.64-1.62-13.6-1.62-1.35,0,20.6,1.55,19.3.68-2.97-1.57-17.25-2.89-15.62-5.21,1.04-1.49,2.25-2.81,3.57-3.91,4.83-5.33,14.27-27.4,17.07-33.19l-14.35.2c-3.19,0-4.95-1.28-5.87-2.36-1.35-1.56-1.5-3.43-.41-5.26.83-1.63,2.37-2.63,4.35-2.82,1.21-.11,2.48-.16,3.77-.16h17.94l3.01-5.16c3.4-5.55,6.66-11.26,9.71-17.03,3.09-5.86,6.12-11.71,8.99-17.37.38-.82,5.73-10.9,11.13-20.56,11.45-20.47,12.44-20.47,14.41-20.47h.3c.27.04.57.06.89.09,2.41.18,6.87.51,7.38,3.6.18.81-.05,1.8-10.99,21.97-5.34,9.86-11.13,20.33-11.49,20.93l-1.61,2.63-5.48,11.32c-1.9,3.67-3.76,7.34-5.71,11.27-1.41,2.85-2.86,5.78-4.35,8.8h21.75c1.48,0,3.29-.05,5.37-.15.2,0,.38-.01.57-.01,2.92,0,5.12,1.11,6.21,3.12,1.13,1.88.89,3.79-.67,5.39-1.44,1.47-3.38,2.25-5.59,2.25h-33.41c-.12.25-.27.61-.45,1.11-.79,2.2-1.16,2.98-1.38,3.37l-2.91,6.23-5.87,13.17c-1.69,3.94-3.22,7.98-4.53,11.98-1.34,4.06-2.5,8.2-3.45,12.31-.46,2.62-.89,5.51-1.26,8.53-.32,2.63.16,5.1,1.44,7.36l.05.1c.69,1.42,1.63,2.27,2.86,2.58.99.25,2.03.38,3.09.38.65,0,1.34-.05,2.03-.14,2-.27,4.03-.78,6.02-1.5,1.34-.49,13.31-4.9,21.11-11.11l1.04-.82c3.79-2.97,15.34-12,20.66-18.82,6.13-7.86,10.16-14.02,12.1-16.98,1.28-1.95,1.41-2.15,1.88-2.48l5.34-3.65-5.22,21.29-.7.46c-.21.14-.41.24-.59.32-.64.81-2.47,3.49-4.93,7.09-6.7,9.84-17.71,19.64-25.1,24.58-9.39,6.27-19.61,9.87-23.56,11.12l-.14.04c-2.87.92-5.82,1.39-8.78,1.39Z"/>
      <path d="M503.72,152c-1.07.7.29-1.43-6.13,8s-16.7,18.78-24.51,24c-10.49,7.01-22.1,10.54-23.05,10.85-4.66,1.5-9.44,1.65-14.34.45-3.68-.8-6.5-2.35-8.46-4.65-1.97-2.3-3.19-4.85-3.68-7.65-.49-3-.62-6-.37-9,.24-3,.74-5.9,1.47-8.7,1.22-4.6,2.57-9.1,4.04-13.5,1.47-4.4,3.18-8.8,5.15-13.2-2.45,2.8-4.91,5.65-7.35,8.55-2.45,2.9,4.78,8.75,2.08,11.55-.98,1-2.15,2.05-3.49,3.15-1.35,1.1.79-2.95-.92-4.15-1.97-1,7.35.8,8.33-.6.98-1.4-11.4-1.6-10.17-2.6,4.9-5.4,9.62-25.85,14.15-31.35,4.53-5.5-.92.85,3.25-4.95h-16.54c-1.72,0-3-.5-3.86-1.5-.86-1-.92-2.1-.18-3.3.49-1,1.29-1.55,2.39-1.65,1.1-.1,2.26-.15,3.49-.15h19.49l3.68-6.3c3.43-5.6,6.68-11.3,9.74-17.1,3.06-5.8,6.07-11.6,9.01-17.4.73-1.6,21.21-40,23.29-39.8,2.08.2,5.88.2,6.13,2,.24,1-21.64,40.7-22.25,41.7-.62,1-1.17,1.9-1.65,2.7l-5.51,11.4c-1.97,3.8-3.86,7.55-5.7,11.25-1.84,3.7-3.74,7.55-5.7,11.55h25.37c1.47,0,3.31-.05,5.51-.15,2.21-.1,3.68.55,4.41,1.95.74,1.2.61,2.3-.37,3.3-.98,1-2.21,1.5-3.68,1.5h-34.56c-.49,0-1.05.85-1.65,2.55-.61,1.7-1.05,2.75-1.29,3.15l-2.94,6.3-5.88,13.2c-1.72,4-3.25,8.05-4.6,12.15-1.35,4.1-2.52,8.25-3.49,12.45-.49,2.8-.92,5.7-1.29,8.7-.37,3,.18,5.8,1.65,8.4.98,2,2.45,3.25,4.41,3.75,1.96.5,4.04.6,6.25.3,2.21-.3,4.41-.85,6.62-1.65,1.23-.45,13.62-4.98,21.82-11.5,2.69-2.14,16.01-12.25,22.06-20,8.58-11,13.1-18.74,13.48-19"/>
      <path d="M482.89,282.27c-5.03,0-9.23-1.51-12.5-4.49-3.59-3.26-5.4-7.3-5.4-11.99.26-6.2,2.55-12.05,6.83-17.44,4.11-5.19,8.6-9.88,13.33-13.94,4.22-3.65,8.68-7.13,13.23-10.34,4.55-3.21,9.36-6.37,14.29-9.39l14.95-9.82,7.26-5.33c.62-.5,1.32-.94,2.08-1.31.2-.1.31-.18.34-.22l1.05-2c3.64-7.52,7.35-15.09,11.01-22.46,1.4-2.82,2.82-5.65,4.25-8.49-2.04,2.08-4.1,4.14-6.16,6.17-6.08,5.97-12.79,11.55-19.96,16.59-2.96,2.22-6.36,4.31-10.05,6.18-3.78,1.92-7.94,3.21-12.37,3.86-1.15.23-2.31.34-3.45.34s-2.37-.12-3.54-.36c-2.31-.47-4.37-1.31-6.12-2.5-1.8-1.22-3.09-2.66-3.84-4.27-.7-1.48-1.07-3.15-1.08-4.96-.26-2.16-.11-4.31.42-6.37.49-1.89.97-3.83,1.46-5.83l.03-.12,5.93-14.52c1.99-4.27,3.95-8.52,5.91-12.82.74-1.63,1.17-2.89,1.59-4.1.66-1.92,1.28-3.74,2.93-6.44.88-1.45,2-3.86,3.18-6.42,2.52-5.45,5.66-12.23,9.27-15.77l.73-.72h3.82l.22.03c1.76.26,4.24,1.64,3.86,4.4-.8,5.77-5.03,14.68-7.82,20.58-.85,1.8-1.58,3.35-1.93,4.21-1.82,4.56-3.75,9.03-5.74,13.29-1.96,4.2-3.92,8.44-5.88,12.74-1.9,4.17-3.48,8.45-4.67,12.74-.23,1.12-.4,2.39-.51,3.79-.09,1.02.08,1.86.51,2.49.11.09.3.2.79.2h0c.09,0,.18,0,.28-.01,1.29-.09,2.36-.21,3.2-.38,2.68-.73,5.23-1.76,7.59-3.04,2.47-1.34,4.79-2.79,6.9-4.33,6.73-4.9,13.01-10.28,18.66-15.96,5.68-5.72,11.4-11.65,17.02-17.62,2.71-3.22,5.43-6.39,8.07-9.43,2.63-3.02,5.3-6.25,7.96-9.59.53-.85,1.13-1.66,1.79-2.41.58-.67,1.23-1.39,1.93-2.15.55-.87,1.18-1.65,1.86-2.32.73-.72,2.1-1.58,4.47-1.62.3-.03.59-.04.87-.04,2.31,0,4.16,1.01,5.06,2.77.84,1.66.93,3.34.25,5l-.05.12-27.05,54.79c4.36-3.43,8.69-6.92,12.92-10.44,6.89-5.72,13.58-11.83,19.88-18.16,1.7-1.73,3.68-2.1,5.04-2.1.19,0,.38,0,.58.02,2.14.17,3.87,1.07,5.01,2.61,2.02,2.48.93,4.5.09,5.48-.88,1.02-1.84,2.06-2.85,3.1l-13.73,12.72-14.76,12.04c-4.93,4.02-10.17,7.99-15.57,11.8l-7.42,5.45c-.86.56-1.44,1.24-1.78,2.07-.51,1.24-1.02,2.39-1.52,3.41-.5,1.01-.98,2-1.47,3-.49.99-.97,1.97-1.44,2.95-.73,1.77-1.54,3.6-2.41,5.44-.87,1.82-1.81,3.67-2.8,5.49-2.18,4.35-4.39,8.71-6.6,13.01-2.19,4.27-4.55,8.59-7.03,12.84-1.99,3.44-4.25,6.88-6.73,10.23-2.52,3.39-5.46,6.57-8.76,9.47-2.79,2.68-6.26,5.09-10.26,7.09-4.14,2.07-8.66,3.22-13.46,3.44-.6.05-1.29.08-1.96.08ZM526.9,218.84c-3.64,2.36-7.35,4.75-11.08,7.13-6.16,3.94-12.08,8.22-17.61,12.74-3.35,2.73-6.62,5.75-9.73,8.97-3.04,3.15-5.52,6.57-7.39,10.19l-.07.12c-1.13,1.84-2.06,3.96-2.75,6.32-.59,2.02-.31,3.86.87,5.63.78,1.14,1.87,1.66,3.55,1.66,2.17,0,4.09-.33,5.71-.99l.18-.07.19-.05c2.79-.7,5.54-2.15,8.18-4.3,3.31-2.51,6-5.23,8.07-8.14,2.14-3.01,4.22-6.16,6.18-9.34,2.64-4.31,5.15-8.71,7.48-13.1,2.32-4.38,4.59-8.89,6.75-13.39.48-1.16.97-2.29,1.48-3.38Z"/>
      <path d="M522.1,115s2.12.31,1.86,2.2c-1.03,7.35-8.19,20.74-9.65,24.4-1.84,4.6-3.74,9-5.7,13.2-1.97,4.2-3.92,8.45-5.88,12.75-1.97,4.3-3.56,8.65-4.78,13.05-.25,1.2-.43,2.55-.55,4.05-.13,1.5.18,2.75.92,3.75.74.8,1.84,1.15,3.31,1.05,1.47-.1,2.69-.25,3.68-.45,2.94-.8,5.7-1.9,8.27-3.3,2.57-1.4,4.96-2.9,7.17-4.5,6.86-5,13.17-10.4,18.93-16.2,5.76-5.8,11.46-11.7,17.1-17.7,2.69-3.2,5.39-6.35,8.09-9.45,2.69-3.1,5.39-6.35,8.09-9.75.49-.8,1.04-1.55,1.65-2.25.61-.7,1.29-1.45,2.02-2.25.49-.8,1.04-1.5,1.65-2.1.61-.6,1.53-.9,2.76-.9,1.71-.2,2.88.3,3.49,1.5.61,1.2.67,2.4.18,3.6l-31.25,63.3c7.11-5.4,14.16-11,21.14-16.8,6.99-5.8,13.66-11.9,20.04-18.3.98-1,2.14-1.45,3.49-1.35,1.34.1,2.39.65,3.12,1.65.98,1.2,1.04,2.3.18,3.3-.86,1-1.78,2-2.76,3l-13.6,12.6c-4.91,4-9.81,8-14.71,12s-10.05,7.9-15.44,11.7l-7.35,5.4c-1.23.8-2.08,1.8-2.57,3-.49,1.2-.98,2.3-1.47,3.3-.49,1-.98,2-1.47,3-.49,1-.98,2-1.47,3-.73,1.8-1.53,3.6-2.39,5.4-.86,1.8-1.78,3.6-2.76,5.4-2.21,4.4-4.41,8.75-6.62,13.05-2.21,4.3-4.54,8.55-6.99,12.75-1.96,3.4-4.17,6.75-6.62,10.05-2.45,3.3-5.27,6.35-8.46,9.15-2.7,2.6-5.95,4.85-9.74,6.75-3.8,1.9-7.9,2.95-12.32,3.15-5.15.4-9.32-.85-12.5-3.75-3.19-2.9-4.78-6.45-4.78-10.65.24-5.8,2.39-11.25,6.43-16.35,4.04-5.1,8.39-9.65,13.05-13.65,4.16-3.6,8.51-7,13.05-10.2,4.53-3.2,9.25-6.3,14.15-9.3l15.07-9.9,7.35-5.4c.49-.4,1.04-.75,1.66-1.05.61-.3,1.04-.65,1.29-1.05l1.1-2.1c3.68-7.6,7.35-15.1,11.03-22.5,3.68-7.4,7.47-14.9,11.4-22.5-5.64,6.2-11.46,12.25-17.46,18.15-6.01,5.9-12.56,11.35-19.67,16.35-2.94,2.2-6.19,4.2-9.74,6-3.56,1.8-7.42,3-11.58,3.6-1.97.4-3.92.4-5.88,0-1.97-.4-3.68-1.1-5.15-2.1-1.47-1-2.52-2.15-3.12-3.45-.62-1.3-.92-2.75-.92-4.35-.25-2-.13-3.95.37-5.85.49-1.9.98-3.85,1.47-5.85l5.88-14.4c1.96-4.2,3.92-8.45,5.88-12.75,1.96-4.3,1.85-6.15,4.41-10.35,2.82-4.62,7.12-16.88,12.14-21.8M475.28,152.4,527.73,222.9c.74-1.8,1.53-3.55,2.39-5.25.86-1.7,1.77-3.45,2.76-5.25-6.13,4-12.32,8-18.57,12-6.25,4-12.2,8.3-17.83,12.9-3.43,2.8-6.74,5.85-9.93,9.15-3.19,3.3-5.76,6.85-7.72,10.65-1.23,2-2.21,4.25-2.94,6.75-.73,2.5-.37,4.85,1.1,7.05,1.22,1.8,3.12,2.7,5.7,2.7s4.84-.4,6.8-1.2c3.18-.8,6.25-2.4,9.19-4.8,3.43-2.6,6.25-5.45,8.46-8.55,2.21-3.1,4.29-6.25,6.25-9.45,2.69-4.4,5.2-8.8,7.54-13.2,2.33-4.4,4.6-8.9,6.8-13.5Z"/>
      <path d="M653.28,201.78c-4.25,0-8.58-.41-12.87-1.23-5.35-1.04-10.46-2.67-15.18-4.86-4.65-2.15-9.04-4.79-13.06-7.86-1.05-.65-2.15-1.45-3.28-2.37-1.44-1.17-2.35-2.48-2.69-3.87l-.05-.2v-.2c0-1.41.46-2.66,1.37-3.7.75-.85,2.13-1.84,4.56-1.89.33-.04.65-.05.97-.05,1.84,0,3.48.61,4.74,1.78.95.88,1.91,1.71,2.83,2.46,1.83,1.5,3.81,2.83,5.88,3.96,4.25,2.51,8.6,4.33,12.98,5.46l.09.02.09.03c1.06.35,2.19.61,3.37.79,1.36.2,2.66.41,3.9.61,1.15.19,2.25.33,3.29.42.29.03.57.04.86.04.59,0,1.22-.05,1.88-.16,2.91-.51,5.18-1.53,6.93-3.12,1.87-1.71,3.39-3.77,4.5-6.14,1.37-3.17,2.25-6.53,2.6-9.95.36-3.53.54-7.11.54-10.63,0-4.7-.25-9.54-.73-14.39-.3-2.99-.42-6.03-.36-9.08-5.85,5.71-11.83,11.22-17.84,16.44l-6.51,5.6c-.66.73-1.88,1.57-4.02,1.77-.24.02-.49.03-.73.03-1.49,0-2.84-.44-3.92-1.27-2.31-1.54-2.62-3.17-2.46-4.28.16-1.21.73-2.41,1.68-3.58.85-1.04,1.86-1.98,3-2.8.93-.66,1.73-1.27,2.4-1.82,5.58-5.14,11.11-10.41,16.44-15.66,5.38-5.29,10.96-10.6,16.59-15.8l4.39-4.18c1.48-1.38,3.13-2.07,4.92-2.07,1.33,0,2.65.39,3.92,1.17,2.88,1.76,3.69,4.17,2.24,6.62-.63,1.26-1.59,2.35-2.83,3.24-.69.5-1.2,1.08-1.55,1.79-.91,1.67-1.46,3.38-1.68,5.16-.25,2-.49,4.09-.73,6.28-.24,4.81-.11,9.78.37,14.66.49,5.05.62,10.18.37,15.24,0,4.19-.38,8.67-1.12,13.24-.47,2.88-1.33,5.65-2.58,8.28,3.54-1.38,6.94-2.98,10.15-4.79,5.03-2.83,9.9-5.96,14.46-9.29,7.89-5.85,14.7-12.1,20.21-18.55l.07-.08c1.84-1.94,3.83-2.34,5.17-2.34s2.73.4,4.08,1.2c3.27,1.93,3.91,4.69,1.71,7.38l-.08.09c-1.48,1.62-2.91,3.13-4.26,4.54-1.35,1.4-2.92,2.94-4.68,4.58-3.5,3.26-7.14,6.38-10.8,9.27-3.73,2.95-7.76,5.77-11.98,8.4-8.21,5.28-17.65,9.57-28.02,12.74-6.43,1.96-13.02,2.95-19.61,2.95Z"/>
      <path d="M723.69,154.2c1.71-1.8,3.68-2.05,5.88-.75,2.21,1.3,2.57,2.85,1.1,4.65-1.47,1.6-2.88,3.1-4.23,4.5-1.35,1.4-2.88,2.9-4.6,4.5-3.44,3.2-6.99,6.25-10.66,9.15-3.68,2.9-7.6,5.65-11.76,8.25-8.09,5.2-17.22,9.35-27.39,12.45-10.17,3.1-20.53,3.65-31.07,1.65-5.15-1-9.99-2.55-14.52-4.65-4.54-2.1-8.77-4.65-12.68-7.65-.98-.6-2.02-1.35-3.12-2.25-1.1-.9-1.77-1.85-2.02-2.85,0-1,.31-1.85.92-2.55.62-.7,1.53-1.05,2.76-1.05,1.47-.2,2.7.15,3.68,1.05.98.9,1.96,1.75,2.94,2.55,1.96,1.6,4.04,3,6.25,4.2,4.41,2.6,8.94,4.5,13.6,5.7,1.22.4,2.51.7,3.86.9,1.34.2,2.63.4,3.86.6,1.22.2,2.39.35,3.49.45,1.1.1,2.26.05,3.49-.15,3.43-.6,6.19-1.85,8.27-3.75,2.08-1.9,3.73-4.15,4.96-6.75,1.47-3.4,2.39-6.9,2.76-10.5.37-3.6.55-7.2.55-10.8,0-4.8-.25-9.65-.74-14.55-.49-4.9-.49-9.85,0-14.85-7.35,7.4-14.83,14.4-22.43,21l-6.62,5.7c-.49.6-1.29.95-2.39,1.05-1.1.1-2.02-.15-2.76-.75-1.23-.8-1.78-1.65-1.66-2.55.12-.9.55-1.8,1.29-2.7.74-.9,1.59-1.7,2.57-2.4.98-.7,1.84-1.35,2.57-1.95,5.64-5.2,11.15-10.45,16.54-15.75,5.39-5.3,10.9-10.55,16.54-15.75l4.41-4.2c1.71-1.6,3.55-1.8,5.51-.6,1.96,1.2,2.45,2.6,1.47,4.2-.49,1-1.23,1.85-2.21,2.55-.98.7-1.72,1.55-2.21,2.55-.98,1.8-1.6,3.7-1.84,5.7-.25,2-.49,4.1-.73,6.3-.25,5-.13,10,.37,15,.49,5,.61,10,.37,15,0,4.2-.37,8.55-1.1,13.05-.73,4.5-2.45,8.65-5.15,12.45,5.88-1.8,11.4-4.15,16.54-7.05,5.15-2.9,10.05-6.05,14.71-9.45,8.09-6,14.95-12.3,20.59-18.9Z"/>
    </g>
    <path d="M98.08,80.96"/>
    <path d="M115.23,82"/>
  </g>
  <path d="M601.51,60.09c.84-4.21,3.92-11.09,6.95-17.09,4.62-9.16,10.42-16.99,21.74-12.39,8.33,3.39-9.63,18.65-19.86,28.39-7.35,7-9.8,6-8.82,1.09Z"/>
  <path d="M611.05,44.12c5.55-8.16,4.46-6.38,7.61-9.86,6.26-6.92,13.45-3.31,7.16,5.55-2.8,3.95-11.42,12.92-16.91,17.49-12.08,4.25.73-10.27,2.14-13.18Z"/>
</svg>