<?xml version="1.0" encoding="UTF-8"?>
<svg id="Layer_1" xmlns="http://www.w3.org/2000/svg" version="1.1" viewBox="0 0 54 18">
  <!-- Generator: Adobe Illustrator 30.0.0, SVG Export Plug-In . SVG Version: 2.1.1 Build 123)  -->
  <defs>
    <style>
      .st0 {
        fill: #fff;
      }
    </style>
  </defs>
  <g>
    <g>
      <path class="st0" d="M8.43,14.26s-.09.01-.13.02c0,0,0,0,0,0-.31.05-.61.06-.91.01-.31-.04-.58-.16-.82-.34-.25-.17-.42-.4-.52-.66-.1-.26-.11-.54-.03-.81.1-.29.27-.52.51-.71.24-.18.52-.32.84-.42.18-.06.38-.1.57-.14.14-.02.28-.04.43-.05.35-.03.67-.02.97,0,.2.02.39.04.59.08.19.03.39.07.57.12.16.04.32.08.47.13,0-.01.01-.02.02-.03.03-.06.07-.13.1-.19.15-.26.28-.53.39-.8.11-.27.22-.55.32-.83.22-.6.42-1.22.6-1.83.16-.55.34-1.11.54-1.66-.44.09-1.01.19-1.48.27-.19.03-.37.07-.53.1-.34.06-.81.15-1.11.21-.64.13-1.19.25-1.6.32-.43.07-.74.09-.86-.05-.11-.13.01-.29.12-.4.32-.35.65-.7.98-1.04.09-.11.73-.68.86-.73.24-.09.41-.06.17.4-.07.13-.12.26-.37.66-.08.13-.24.36-.32.47.95-.2,2.21-.47,2.95-.61.21-.04.36-.07.44-.08.22-.04.43-.09.65-.13.11-.02.21-.05.32-.07,0,0,.02,0,.02,0,0,0,.02,0,.03-.01,0-.02.02-.03.03-.05.1-.28.24-.57.39-.86.21-.46.51-.92.87-1.36.38-.46.92-.81,1.6-1.05.28-.09.58-.15.88-.17.33-.03.63.03.92.15.27.13.44.31.5.54.06.21.05.42-.02.62-.1.27-.26.52-.47.74-.21.21-.46.41-.74.6-.28.18-.58.35-.9.49-.32.14-.63.27-.93.39-.4.15-.79.28-1.17.39-.08.02-.17.04-.25.07,0,0-.12.31-.15.37-.03.07-.05.15-.07.22-.21.63-.42,1.25-.61,1.88-.2.59-.41,1.18-.62,1.74-.2.53-.45,1.07-.75,1.59.25.08.5.15.74.23.29.09.59.19.9.28.32.09.67.16,1.02.21.34.05.69.06,1.03.03.57-.07,1.07-.29,1.49-.66,0,0,0,0,0,0,.24-.18.47-.39.67-.62.21-.24.42-.47.62-.69.17-.19.35-.37.52-.56.08-.09.18-.13.29-.14.09,0,.18.01.27.06.19.1.25.25.15.4-.03.06-.08.12-.14.16-.03.02-.06.05-.08.08,0,0,0,0,0,0-.26.28-.52.57-.77.85-.14.14-.56.57-.56.57-.19.2-.41.37-.66.53-.49.34-1.04.55-1.64.63-.05,0-.1.01-.15.02-.33.03-.66.04-.98,0-.36-.04-.72-.1-1.07-.19-.35-.08-.69-.19-1.04-.31-.33-.12-.66-.22-.99-.32,0,0,0,0,0,0,0,.01-.01.02-.02.03-.04.06-.09.12-.13.18-.1.12-.2.24-.3.36-.21.23-.43.44-.67.63-.28.2-.58.36-.9.5-.28.12-.58.21-.89.27ZM8.13,11.8c-.13.02-.26.05-.39.09-.24.08-.46.19-.65.34-.18.15-.28.31-.31.52-.03.22.04.42.19.6.15.17.35.28.62.31.21.03.41.03.61,0h0c.09-.02.18-.04.27-.07.31-.1.59-.22.84-.35.3-.15.56-.34.77-.57.18-.2.35-.4.51-.61-.27-.07-.53-.14-.78-.19-.33-.07-.69-.11-1.06-.12-.21,0-.42,0-.62.04ZM15,3.79c-.18.25-.34.51-.47.77-.1.19-.19.38-.28.56.25-.08.5-.17.74-.26.35-.13.68-.27.98-.43.26-.13.51-.27.75-.43.23-.15.43-.33.58-.52.09-.13.17-.28.23-.45.05-.14.02-.26-.1-.36-.07-.07-.15-.1-.24-.11-.08,0-.16,0-.24,0-.04,0-.09,0-.13.02-.13.02-.26.06-.39.1-.14.05-.25.1-.34.14-.24.11-.44.25-.61.41-.17.17-.34.36-.49.55Z"/>
      <path class="st0" d="M8.82,5.24c.43-.43.55-.2.42,0-.27.42-1.04,1.31-.9,1.29,1.2-.26,3.48-.7,3.89-.77.22-.04.43-.09.65-.13.1-.02.21-.05.31-.07.03,0,.06,0,.07-.02.02,0,.04-.01.07-.02.02-.04.04-.08.06-.11.11-.28.23-.56.39-.85.21-.46.5-.9.86-1.34.36-.44.87-.77,1.53-1,.26-.08.54-.14.83-.16.29-.02.56.02.81.14.23.11.38.27.43.46.05.19.05.38-.02.57-.09.26-.24.49-.44.7-.2.21-.44.4-.71.58-.27.18-.56.34-.88.48-.31.14-.62.27-.92.38-.39.15-.78.28-1.16.39-.11.03-.22.06-.33.09-.02.07-.04.15-.06.22-.04.06-.07.13-.1.21-.03.08-.05.15-.07.22-.21.62-.41,1.25-.61,1.88-.2.59-.41,1.17-.62,1.74-.21.57-.48,1.13-.8,1.68.3.09.59.18.89.28.29.09.6.19.91.28.34.09.69.16,1.05.22.36.06.72.06,1.07.03.61-.08,1.14-.31,1.59-.69.25-.19.48-.4.69-.63.21-.23.42-.46.62-.7.17-.19.35-.37.52-.56.1-.1.21-.12.34-.05.13.07.16.15.09.25-.03.05-.06.09-.1.12-.04.03-.08.07-.11.11-.26.28-.51.56-.76.85-.19.19-.38.39-.56.57-.18.19-.39.36-.63.51-.47.33-.99.53-1.57.6-.37.05-.73.06-1.08.02-.35-.04-.7-.1-1.04-.18-.34-.08-.68-.19-1.02-.3-.34-.12-.67-.23-1-.33-.03,0-.06-.02-.08-.03-.02-.02-.04,0-.07.02-.02.03-.05.07-.07.1-.04.06-.08.12-.12.18-.1.12-.2.23-.3.35-.2.22-.42.42-.65.61-.27.19-.55.35-.87.48-.31.14-.64.23-.98.27-.29.05-.58.06-.86.02-.28-.04-.53-.14-.74-.31-.23-.16-.39-.37-.48-.61-.09-.25-.1-.5-.03-.75.09-.26.24-.48.47-.64.23-.17.49-.3.79-.4.3-.1.62-.16.96-.18.33-.03.65-.02.94,0,.19.02.38.04.57.08.19.03.37.07.56.12.19.05.38.1.57.15.03,0,.05,0,.06-.04.02-.03.04-.05.05-.08.03-.07.07-.13.1-.2.15-.26.28-.53.39-.81.11-.27.22-.55.33-.83.22-.61.42-1.22.6-1.84.18-.62.39-1.24.61-1.85-.61.14-1.64.3-2.27.42-2.24.42-3.88.89-3.28.25M9.39,13.34c.32-.16.59-.36.81-.6.23-.24.43-.49.61-.74-.33-.1-.65-.18-.96-.24-.34-.07-.71-.11-1.09-.12-.38-.01-.74.04-1.08.14-.26.08-.5.21-.7.37-.2.16-.32.36-.35.59-.03.25.04.47.22.67.17.2.41.32.71.36.32.05.64.03.97-.08.32-.1.61-.22.87-.36ZM16.01,2.73c-.26.12-.48.27-.65.45-.18.18-.35.37-.51.56-.18.26-.34.52-.48.79-.14.27-.27.54-.39.82.36-.11.72-.23,1.08-.36.36-.13.69-.28,1-.44.27-.13.52-.28.77-.44.25-.16.45-.35.61-.55.1-.14.19-.3.25-.48.07-.18.02-.33-.13-.47-.09-.09-.21-.14-.35-.15-.14-.01-.28,0-.43.02-.15.02-.3.06-.43.12-.14.05-.26.1-.35.15Z"/>
      <path class="st0" d="M20.23,12.61c-.1,0-.2,0-.3,0-.26,0-.51-.06-.72-.16-.22-.1-.4-.24-.54-.43-.15-.21-.24-.44-.25-.69-.01-.24,0-.47.04-.7.09-.47.27-.94.55-1.38.27-.45.64-.85,1.08-1.19.18-.15.39-.28.61-.4.23-.13.48-.22.75-.27.1-.02.21-.03.31-.04.19,0,.39,0,.59.04.33.06.56.22.69.47.08.19.09.37.03.54-.06.16-.15.31-.27.45-.12.14-.26.28-.43.4-.16.12-.32.22-.47.31-.27.15-.54.28-.82.38-.27.1-.56.2-.85.29-.09.03-.18.06-.28.08-.08.02-.17.05-.26.08,0,0,0,0-.01,0-.1.03-.19.05-.29.08,0,0-.03,0-.03,0,0,0,0,0-.01,0,0,.01-.01.03-.02.04-.08.29-.11.56-.08.82.02.09.05.18.09.28.03.08.09.15.16.22.16.09.31.12.47.11,0,0,0,0,.01,0,0,0,0,0,.01,0,.06,0,.12,0,.17,0,.13,0,.26-.03.39-.07.2-.06.39-.13.57-.21.24-.13.47-.27.7-.43.23-.16.45-.33.67-.5.13-.1.25-.21.37-.32.12-.12.24-.23.36-.34.13-.13.26-.27.39-.4.11-.11.23-.14.31-.14.09,0,.18.02.27.07.17.11.22.25.12.38-.06.09-.13.17-.19.23-.18.17-.36.34-.54.51-.16.13-.32.27-.48.4-.15.13-.32.27-.49.41-.36.26-.76.5-1.21.73-.38.19-.78.3-1.19.33ZM21.86,7.99s-.1,0-.14.02c0,0,0,0,0,0-.24.03-.46.11-.66.23-.21.13-.39.27-.55.42-.32.31-.59.66-.81,1.05.36-.11.72-.23,1.08-.36.45-.17.84-.4,1.15-.67.19-.16.3-.32.33-.47.02-.15-.07-.17-.11-.19-.09-.02-.19-.03-.28-.03Z"/>
      <path class="st0" d="M24.12,9.72c.11.07.14.15.08.23-.06.08-.12.16-.18.22-.18.17-.35.33-.53.5-.16.14-.32.27-.47.4-.15.13-.32.26-.49.4-.35.25-.74.49-1.18.72-.44.23-.91.33-1.4.31-.24,0-.46-.06-.66-.14-.2-.09-.36-.22-.48-.39-.14-.19-.22-.4-.23-.64-.01-.23,0-.46.04-.68.09-.46.27-.91.54-1.35.27-.44.62-.82,1.05-1.16.18-.14.37-.27.59-.39.21-.12.45-.2.7-.25.27-.05.54-.05.82,0,.28.05.48.19.58.4.07.16.08.32.02.46-.06.14-.14.28-.25.42-.11.14-.24.26-.4.37-.16.11-.31.22-.46.31-.25.14-.52.27-.79.37-.27.1-.55.2-.83.29-.09.03-.18.06-.27.08-.09.02-.18.05-.27.08-.09.02-.18.05-.27.07-.03,0-.05,0-.07.01-.02,0-.04.01-.07.01-.02,0-.02.01-.02.04,0,.02,0,.04-.02.04-.09.32-.12.62-.09.9.02.09.06.19.1.3.04.1.11.2.21.27.19.11.38.15.58.14.21.01.42-.02.63-.08.2-.07.4-.14.59-.22.25-.13.49-.28.72-.44.23-.16.46-.33.68-.5.13-.1.26-.21.38-.33.12-.12.24-.23.36-.34.13-.14.26-.27.4-.41.1-.11.23-.13.37-.05ZM21.68,7.89c-.27.04-.51.12-.73.26-.22.14-.41.28-.57.43-.39.38-.71.83-.96,1.33.47-.13.94-.28,1.42-.46.48-.18.88-.41,1.2-.7.21-.18.33-.35.37-.53.02-.17-.05-.27-.22-.31-.17-.04-.34-.05-.51-.01Z"/>
      <path class="st0" d="M22.67,17.54c-.29.01-.56-.05-.79-.18-.23-.13-.4-.31-.49-.55h0c-.06-.18-.08-.37-.05-.56.02-.18.05-.35.08-.52.09-.46.23-.93.42-1.38.18-.46.37-.91.56-1.35.44-.95.91-1.89,1.39-2.83-.08-.03-.14-.08-.18-.15-.07-.12-.05-.25.05-.36.08-.07.15-.14.23-.21.09-.07.17-.14.26-.21.04-.06.09-.11.15-.15.03-.02.06-.06.08-.1,0,0,0,0,0,0,0,0,0,0,0,0,.09-.14.18-.31.29-.5.11-.22.22-.43.34-.65.3-.61.62-1.21.95-1.81.33-.59.67-1.19,1.02-1.8.13-.23.26-.45.4-.67.13-.22.27-.44.4-.67.14-.21.32-.41.54-.58.23-.18.52-.3.87-.36.15-.03.3-.05.45-.05.12,0,.25.02.37.04.28.06.51.18.69.34.22.19.32.42.31.68-.01.24-.07.46-.16.67-.19.35-.43.69-.72,1-.28.31-.58.61-.88.91-.36.36-.74.72-1.13,1.08-.39.36-.77.72-1.14,1.07-.36.32-.73.64-1.08.96-.16.14-.32.29-.48.43-.07.06-.14.12-.21.18-.08.07-.13.14-.15.19,0,0,0,0,0,0,0,0,0,0,0,0-.21.38-.41.76-.6,1.14-.14.27-.28.54-.42.82.08,0,.15-.01.23-.01.09,0,.18,0,.27,0,.08,0,.18,0,.27-.02.33-.04,1.5-.2,1.85-.32.42-.16.81-.38,1.16-.64.36-.27.46-.31.77-.59.07-.07.17-.11.29-.12.01,0,.03,0,.04,0,.11,0,.21.04.29.1,0,0,0,0,0,0,0,0,0,0,0,0,.13.14.12.3-.04.45-.13.12-.03,0-.16.11-.13.11-.27.22-.41.33-.22.17-.46.33-.7.48-.25.15-.52.28-.8.39-.49.22-1.82.41-2.33.43-.08.01-.15.02-.22.02-.07,0-.13,0-.2,0-.03,0-.06,0-.09,0-.01.07-.02.15,0,.23.02.11.04.21.06.3.06.28.11.56.17.83.06.29.11.58.14.86.03.29.04.58.03.86-.01.29-.07.58-.16.86-.12.36-.33.7-.62,1.01-.31.32-.7.5-1.19.53,0,0,0,0,0,0,0,0,0,0,0,0ZM23.48,12.48c-.08.17-.17.35-.25.52-.16.35-.32.71-.46,1.08-.11.28-.23.56-.33.84-.1.28-.19.55-.26.82-.02.08-.04.16-.05.24,0,.08-.02.17-.02.27,0,0,0,0,0,0,0,0,0,0,0,0-.02.09-.03.17-.02.25,0,.07.03.14.08.22.07.1.17.16.3.16.04,0,.07,0,.11,0,.11,0,.22-.03.32-.07.19-.07.35-.18.47-.32.13-.14.23-.3.3-.48.07-.18.12-.36.15-.55.03-.19.04-.38.03-.55,0-.27-.02-.54-.07-.81-.05-.27-.1-.55-.16-.81-.04-.13-.06-.26-.09-.39-.02-.12-.04-.25-.06-.38,0-.02,0-.04-.01-.06ZM29.58,2.54c-.11,0-.22.02-.33.08-.22.11-.4.23-.52.35-.08.09-.15.18-.22.29-.07.11-.14.22-.21.33-.14.22-.27.45-.4.67-.17.27-.32.54-.47.82-.15.27-.3.55-.47.83-.29.51-.57,1.03-.85,1.54.22-.2.44-.4.66-.6.43-.4.87-.8,1.29-1.21.19-.18.39-.38.58-.57.19-.19.38-.39.56-.58.13-.16.27-.32.39-.48.13-.15.24-.32.34-.49.05-.08.09-.16.13-.26.03-.09.05-.18.04-.28,0-.09-.03-.17-.07-.24-.04-.06-.11-.11-.23-.15-.08-.03-.16-.04-.24-.05Z"/>
      <path class="st0" d="M28.69,9.91s.11-.07.19-.08c.08,0,.15.02.21.07.09.1.08.2-.03.3-.13.12-.02,0-.15.11-.13.11-.27.22-.41.32-.22.16-.45.32-.69.47-.24.15-.5.27-.77.38-.48.21-1.79.4-2.29.42-.08.01-.14.02-.2.02-.06,0-.13,0-.2,0-.09,0-.16,0-.2-.01-.01.01-.02.04-.02.07-.03.1-.03.2-.01.3.02.11.04.21.06.3.05.27.11.55.17.84.06.28.11.57.14.85.03.29.04.57.03.85-.01.28-.06.56-.15.83-.12.35-.32.67-.6.96-.28.29-.64.46-1.09.49-.26.01-.5-.04-.7-.16-.2-.12-.35-.28-.44-.49-.05-.16-.07-.33-.05-.51.02-.17.05-.35.08-.51.09-.46.23-.91.41-1.36.18-.45.37-.9.57-1.35.47-.99.96-1.98,1.46-2.96-.12.02-.21-.02-.26-.1-.05-.08-.04-.16.04-.23.07-.07.15-.14.22-.2.09-.07.18-.15.27-.22.03-.05.07-.09.12-.13.05-.04.09-.09.12-.15.09-.14.19-.31.29-.51.11-.22.22-.43.34-.65.3-.61.62-1.21.95-1.81.33-.59.67-1.19,1.02-1.8.13-.23.27-.45.4-.67.13-.22.27-.44.41-.67.14-.2.31-.38.51-.55.2-.16.47-.27.79-.33.24-.06.48-.06.72,0,.24.05.45.15.61.3.2.17.29.37.28.6-.01.23-.06.44-.15.64-.18.34-.41.66-.7.97-.28.31-.57.61-.87.9-.37.36-.74.72-1.12,1.08-.38.35-.76.71-1.14,1.07-.36.32-.72.63-1.08.95-.16.14-.32.29-.48.43-.07.06-.14.12-.21.18-.09.09-.15.16-.18.24-.21.39-.41.76-.6,1.14-.19.37-.39.75-.58,1.14.04-.08.11-.13.22-.15.1-.01.21-.02.32-.03.09,0,.18,0,.27,0,.09,0,.19,0,.29-.02.35-.04,1.53-.2,1.89-.33.44-.17.84-.39,1.2-.67.36-.28.47-.32.78-.6ZM24,14.92c0-.27-.02-.55-.07-.82-.05-.27-.1-.55-.16-.82-.04-.13-.06-.26-.08-.38-.02-.12-.04-.25-.06-.38-.05-.2-.06-.41-.03-.62-.18.35-.35.71-.52,1.06-.17.36-.32.72-.46,1.08-.12.28-.23.56-.33.84-.11.28-.19.56-.26.83-.02.08-.04.17-.05.25,0,.08-.02.17-.02.27-.02.1-.03.19-.02.28,0,.09.04.18.1.27.09.14.23.21.42.22.18,0,.35-.02.5-.08.21-.08.38-.2.52-.35.14-.15.25-.32.33-.51.08-.19.13-.38.16-.58.03-.2.04-.39.03-.56ZM25.6,8.12c.43-.4.87-.8,1.31-1.2.44-.4.87-.8,1.3-1.22.2-.19.39-.38.58-.57.19-.19.38-.39.57-.59.14-.16.27-.33.4-.48.13-.16.25-.32.35-.5.05-.08.1-.17.14-.27.04-.1.05-.2.05-.31,0-.11-.03-.2-.09-.29-.06-.08-.16-.15-.31-.2-.25-.09-.5-.08-.73.04-.24.12-.43.24-.56.38-.09.09-.16.2-.23.31-.07.11-.14.22-.2.33-.14.23-.27.45-.41.68-.17.27-.32.55-.47.82-.15.27-.3.55-.46.82-.42.75-.83,1.5-1.22,2.26Z"/>
      <path class="st0" d="M30.02,12.39c-.14,0-.29-.03-.43-.06-.25-.06-.45-.17-.59-.34-.13-.15-.21-.33-.24-.51-.03-.19-.03-.38-.01-.56.02-.18.06-.36.11-.53.08-.27.18-.54.28-.81,0-.01.01-.03.02-.04-.12.13.36.44.23.57-.07.06-.15.13-.24.19-.09.07-.79-.11-.85-.11-.08,0,1.29.11,1.21.06-.18-.1-1.07-.19-.97-.33.07-.09.14-.17.23-.23.31-.31.95-1.61,1.15-1.95-.31,0-.62,0-.93,0-.21,0-.32-.08-.38-.15-.09-.09-.09-.21-.02-.31.06-.1.16-.15.29-.16.08,0,.16,0,.25,0,.39,0,.78.02,1.17.03.07-.1.14-.2.21-.3.24-.32.47-.66.68-.99.22-.34.44-.68.65-1.01.03-.05.42-.63.83-1.19.86-1.18.94-1.17,1.07-1.17,0,0,0,0,0,0,0,0,0,0,.01,0,.02,0,.04,0,.06,0,.16.02.47.06.49.24.01.05-.02.11-.85,1.26-.41.57-.83,1.17-.86,1.21-.04.05-.08.1-.12.15-.14.22-.27.44-.4.66-.14.21-.27.43-.41.65-.1.17-.21.34-.31.51.47.02.94.04,1.41.06.1,0,.21,0,.35,0,.01,0,.02,0,.04,0,.19,0,.33.08.39.21.06.12.04.23-.07.32-.1.08-.23.12-.37.11-.72-.04-1.44-.07-2.15-.09,0,.01-.02.04-.03.07-.06.13-.08.18-.1.2-.07.12-.14.24-.2.36-.14.26-.27.52-.41.77-.12.23-.22.47-.31.71-.09.24-.17.48-.24.73-.03.16-.07.33-.09.51-.02.16,0,.3.07.44,0,0,0,0,0,0,.04.09.1.14.17.16.06.02.12.03.19.03.04,0,.08,0,.12,0,.12-.01.25-.04.37-.08.08-.03.83-.27,1.34-.61.02-.02.05-.03.07-.05.24-.17,1-.67,1.37-1.06.42-.45.71-.8.85-.96.09-.11.1-.12.13-.14.12-.07.24-.13.36-.19-.15.41-.3.83-.45,1.24-.02,0-.03.02-.05.02-.01,0-.03.01-.04.02-.04.05-.17.2-.35.4-.47.56-1.19,1.11-1.66,1.38-.6.35-1.23.54-1.48.61,0,0,0,0,0,0-.18.05-.36.07-.54.07Z"/>
      <path class="st0" d="M34,9.82c-.07.04.02-.08-.43.45-.43.51-1.13,1.06-1.62,1.35-.67.39-1.39.57-1.45.59-.29.08-.58.08-.88,0-.22-.05-.39-.15-.51-.29-.12-.14-.19-.29-.21-.46-.03-.18-.03-.36,0-.54.02-.18.05-.35.1-.52.08-.27.18-.54.28-.8.1-.26.22-.52.35-.78-.16.16-.32.33-.48.5-.16.17.29.53.11.69-.06.06-.14.12-.22.18-.09.06.05-.17-.05-.25-.12-.06.46.06.52-.03.06-.08-.71-.11-.63-.17.31-.32.65-1.53.96-1.85.3-.32-.06.05.22-.29-.36,0-.71-.02-1.07-.02-.11,0-.19-.03-.25-.09-.05-.06-.06-.13,0-.2.03-.06.09-.09.16-.1.07,0,.15,0,.23,0,.42,0,.84.02,1.26.03.08-.12.17-.25.26-.37.24-.33.47-.66.69-1,.22-.34.44-.67.66-1.01.04-.1,1.59-2.31,1.74-2.29.14.02.4.03.41.14,0,.06-1.65,2.34-1.69,2.4-.04.06-.08.11-.12.16-.14.22-.27.44-.41.66-.14.22-.28.44-.41.65-.13.22-.27.44-.41.67.55.02,1.1.04,1.65.07.1,0,.21,0,.36,0,.14,0,.24.05.28.13.04.07.03.14-.04.19-.07.06-.15.08-.24.08-.74-.04-1.49-.07-2.23-.09-.03,0-.07.05-.11.15-.04.1-.08.16-.09.18-.07.12-.14.25-.21.37-.14.26-.27.52-.41.78-.12.24-.22.47-.32.72-.09.24-.17.49-.24.74-.04.17-.07.34-.1.52-.03.18,0,.35.09.5.06.12.14.2.26.23.12.03.25.04.38.03.14-.01.27-.04.41-.09.08-.02.85-.27,1.38-.63.17-.12,1.04-.68,1.46-1.12.59-.62.92-1.06.95-1.08"/>
      <path class="st0" d="M32.14,17.49c-.29-.01-.52-.11-.69-.3-.19-.2-.28-.45-.27-.73.04-.37.19-.71.46-1.02.26-.3.54-.56.84-.79.27-.2.55-.4.83-.57.29-.18.59-.34.9-.5.32-.17.64-.35.96-.52.16-.09.32-.19.47-.28.04-.03.09-.05.14-.07.01,0,.02,0,.02-.01.03-.04.05-.08.08-.11.27-.43.55-.86.84-1.27.11-.16.22-.32.33-.48-.14.11-.29.22-.43.33-.42.32-.87.62-1.34.88-.2.12-.42.23-.65.32-.24.1-.5.16-.77.18-.07,0-.14.01-.21,0-.07,0-.14-.02-.21-.03-.14-.04-.26-.09-.36-.17-.1-.08-.18-.17-.21-.27-.04-.09-.05-.19-.04-.3,0-.13.01-.26.05-.38.04-.11.08-.22.12-.34,0,0,0,0,0,0,.14-.28.29-.56.44-.84.15-.25.29-.49.44-.74.06-.09.09-.17.12-.24.05-.11.1-.22.22-.37.06-.08.15-.22.24-.37.19-.31.43-.7.69-.9.02-.01.03-.03.05-.04.08,0,.16.01.25.02,0,0,0,0,.01,0,.11.02.26.12.22.28-.09.34-.41.85-.63,1.19-.06.1-.12.19-.15.24-.14.26-.29.52-.44.76-.15.24-.29.49-.44.73-.14.24-.26.49-.36.74-.02.07-.04.14-.05.22-.01.06,0,.11.02.15,0,0,.02.01.05.01t0,0s.01,0,.02,0c.08,0,.15,0,.2-.01.17-.03.33-.08.48-.15.16-.07.31-.15.45-.23.44-.26.87-.55,1.26-.86.39-.31.8-.63,1.19-.95.2-.18.39-.35.59-.51.19-.16.39-.34.59-.52.04-.05.09-.09.13-.13.04-.04.09-.07.14-.11.04-.05.09-.09.14-.13.05-.04.15-.08.3-.07.02,0,.04,0,.06,0,.15.02.26.09.3.2.04.1.03.2-.03.3,0,0,0,0,0,0-.74,1.02-1.47,2.04-2.16,3.07.3-.18.59-.36.88-.54.47-.3.95-.61,1.4-.94.12-.09.25-.1.34-.09.01,0,.02,0,.04,0,.13.03.23.09.29.19.1.16.01.27-.05.32-.06.05-.14.11-.21.16-.33.22-.65.44-.97.66-.34.2-.68.41-1.01.62-.34.21-.69.41-1.04.61-.16.09-.33.19-.49.28-.06.03-.1.07-.12.11-.04.07-.08.14-.12.19-.04.06-.07.11-.11.17-.04.06-.07.11-.11.17-.06.1-.12.21-.18.31-.07.1-.13.21-.2.31-.16.25-.32.5-.48.74-.16.24-.32.49-.49.73-.14.2-.29.39-.45.58-.16.19-.35.37-.56.53-.17.15-.39.28-.62.39-.25.11-.51.16-.78.16-.03,0-.07,0-.11,0ZM35.04,13.88c-.23.12-.47.25-.7.38-.39.21-.76.44-1.11.69-.21.15-.42.32-.61.5-.19.18-.35.37-.47.58,0,0,0,0,0,0-.07.11-.14.23-.18.37-.04.12-.03.23.03.34.04.07.1.1.2.11.12,0,.24,0,.33-.04,0,0,0,0,.01,0,0,0,0,0,.01,0,.16-.03.33-.11.49-.23.2-.14.37-.29.51-.46.14-.17.28-.35.41-.53.18-.25.35-.5.51-.75.16-.25.33-.51.48-.77.04-.07.07-.13.11-.19Z"/>
      <path class="st0" d="M35.39,7.7s.14.03.11.14c-.11.43-.65,1.19-.76,1.4-.14.27-.29.52-.43.76-.15.24-.29.49-.44.73-.14.25-.27.5-.36.76-.02.07-.04.15-.05.24-.02.09,0,.16.04.23.04.05.11.08.2.07.09,0,.17,0,.23-.01.18-.04.36-.09.52-.16.17-.07.32-.15.47-.24.45-.27.88-.56,1.28-.87.4-.31.8-.63,1.2-.96.19-.17.39-.34.59-.51.2-.17.39-.34.6-.53.04-.04.08-.08.13-.12.04-.04.09-.08.15-.12.04-.04.08-.08.12-.11.04-.03.11-.04.19-.03.11,0,.18.04.21.11.03.07.02.15-.02.21-.86,1.18-1.69,2.36-2.48,3.55.48-.28.95-.57,1.44-.87.48-.3.95-.62,1.41-.95.07-.05.15-.07.23-.05.08.02.14.06.18.12.05.08.04.14-.02.2-.06.05-.13.11-.2.16-.32.22-.64.43-.96.65-.34.2-.68.41-1.01.62-.33.21-.68.41-1.04.6-.16.09-.32.19-.49.28-.08.04-.14.1-.18.16-.04.07-.08.13-.11.19-.04.06-.07.11-.11.17-.04.06-.07.11-.11.17-.06.1-.12.21-.18.31-.06.1-.13.2-.2.31-.16.25-.32.5-.48.74-.16.25-.32.49-.49.73-.14.19-.28.38-.44.57-.16.19-.34.36-.54.51-.17.14-.37.27-.59.37-.23.1-.46.15-.72.15-.29,0-.53-.08-.7-.26-.17-.18-.25-.4-.24-.65.03-.34.18-.66.43-.96.26-.29.53-.55.82-.77.26-.2.54-.39.82-.56.29-.17.58-.34.89-.5.32-.18.64-.35.97-.52.16-.1.32-.19.48-.29.03-.02.07-.04.11-.05.04-.01.07-.03.09-.06.03-.04.05-.08.08-.12.28-.43.56-.86.84-1.28.28-.42.58-.84.89-1.27-.4.33-.81.66-1.23.98-.42.32-.86.61-1.32.87-.19.12-.4.22-.63.31-.23.09-.47.15-.73.17-.12.02-.24,0-.36-.02-.12-.03-.22-.08-.3-.14-.08-.06-.14-.14-.17-.22-.03-.08-.04-.17-.04-.26,0-.12.01-.24.05-.35.04-.11.08-.23.12-.34.14-.28.29-.56.44-.83.14-.24.29-.49.43-.74.15-.25.15-.36.33-.6.2-.26.55-.97.9-1.24M32.2,11.65,35.06,14.12c.06-.1.11-.2.18-.3.06-.1.13-.2.2-.3-.39.21-.79.42-1.18.63-.4.21-.77.45-1.12.7-.22.15-.42.33-.63.51-.2.19-.37.39-.49.61-.08.12-.15.25-.2.39-.05.15-.04.29.04.42.06.11.17.17.32.18.15,0,.28,0,.39-.05.19-.04.37-.12.55-.26.21-.14.39-.3.53-.48.14-.18.28-.36.42-.54.18-.25.35-.5.52-.75.16-.25.33-.51.49-.77Z"/>
      <path class="st0" d="M42.78,13.7c-.26-.04-.51-.1-.76-.18-.31-.11-.6-.24-.86-.41-.26-.16-.5-.35-.71-.56-.06-.05-.12-.1-.18-.16-.08-.08-.12-.16-.13-.25,0,0,0,0,0-.01,0,0,0,0,0-.01.01-.08.06-.15.12-.21.05-.04.15-.09.3-.08.02,0,.04,0,.06,0,.11.01.21.06.27.14.05.06.1.12.15.17.1.1.2.2.32.28.23.18.48.32.73.43,0,0,0,0,0,0,0,0,0,0,0,0,.06.03.13.05.2.07.08.02.16.05.23.07.07.02.13.04.19.05.02,0,.03,0,.05,0,.04,0,.07,0,.12,0,.18,0,.33-.04.46-.12.14-.08.25-.19.35-.32.12-.17.22-.36.29-.56.07-.2.13-.41.17-.62.06-.28.11-.56.14-.85.02-.18.05-.36.09-.54-.44.28-.89.55-1.33.8-.16.09-.32.18-.47.27-.05.04-.14.08-.27.07-.02,0-.03,0-.05,0-.09-.01-.17-.05-.23-.11-.13-.11-.13-.21-.11-.27.02-.07.07-.14.15-.2.07-.05.14-.1.22-.14.07-.03.12-.06.17-.09.41-.25.82-.51,1.23-.77.41-.26.83-.52,1.26-.77.11-.07.22-.13.34-.2.11-.07.23-.09.34-.07.09.01.17.05.24.11.16.13.18.28.05.41-.06.07-.13.12-.23.16-.05.02-.09.05-.12.09-.08.09-.14.18-.18.28-.04.11-.09.23-.13.36-.08.28-.14.57-.18.86-.04.3-.1.6-.18.89-.06.25-.14.5-.25.76-.07.16-.16.32-.27.46.23-.05.46-.11.68-.18.35-.11.69-.25,1.02-.39.57-.26,1.08-.55,1.53-.86,0,0,0,0,0,0,.14-.09.27-.09.36-.08.08.02.16.06.23.12.17.15.17.32-.01.45,0,0,0,0,0,0-.12.08-.23.15-.34.21-.11.07-.23.14-.36.21-.27.15-.54.29-.8.42-.27.13-.56.25-.85.36-.58.22-1.21.38-1.87.47-.41.05-.82.05-1.22,0Z"/>
      <path class="st0" d="M47.75,11.63c.13-.09.26-.08.38.02.12.1.11.2,0,.28-.12.08-.23.15-.33.21-.11.07-.22.14-.35.21-.26.15-.53.29-.79.41-.27.13-.55.25-.84.36-.57.22-1.18.37-1.83.46-.65.09-1.28.03-1.9-.18-.3-.1-.57-.23-.83-.39-.25-.16-.48-.34-.69-.55-.05-.04-.11-.09-.17-.16-.06-.06-.09-.12-.09-.18.01-.06.04-.11.08-.14.05-.04.1-.05.18-.04.09,0,.16.03.21.09.05.06.1.12.15.17.1.11.22.21.34.3.24.19.49.34.76.45.07.03.14.06.22.09.08.02.15.05.23.07.07.02.14.04.21.06.07.02.14.02.21.02.22,0,.4-.05.55-.15.15-.09.28-.21.39-.35.13-.19.24-.38.31-.59.07-.21.13-.42.18-.63.06-.28.11-.57.14-.86.03-.29.1-.58.19-.87-.56.36-1.12.7-1.67,1.02-.16.09-.32.18-.48.28-.04.03-.09.04-.16.04-.07,0-.12-.03-.16-.07-.07-.06-.09-.11-.07-.16.02-.05.06-.1.11-.15.06-.05.12-.09.19-.12.07-.03.13-.06.18-.09.41-.26.82-.52,1.23-.78.41-.26.83-.52,1.26-.76.11-.07.23-.13.34-.2.13-.08.25-.07.36.02.11.09.12.18.04.26-.05.05-.1.1-.18.13-.07.03-.13.07-.18.13-.09.1-.15.2-.19.31-.04.11-.09.24-.13.36-.08.29-.14.58-.18.88-.04.3-.1.59-.18.88-.06.25-.14.5-.24.75-.1.26-.27.48-.48.68.38-.05.75-.13,1.1-.25.35-.12.7-.25,1.03-.4.58-.26,1.1-.55,1.56-.87Z"/>
    </g>
    <path class="st0" d="M8.35,7.5"/>
    <path class="st0" d="M9.43,7.57"/>
  </g>
  <path class="st0" d="M41.05,4.94c.1-.24.37-.62.64-.95.41-.5.89-.92,1.61-.54.53.27-.87,1.01-1.65,1.5-.56.35-.72.28-.6,0Z"/>
  <path class="st0" d="M41.86,4.07c.46-.43.37-.34.62-.52.5-.35.95-.08.43.39-.23.21-.91.66-1.33.89-.85.15.15-.6.28-.76Z"/>
</svg>